<svg width="500" height="500" viewBox="0 0 500 500" fill="none" xmlns="http://www.w3.org/2000/svg">
<path d="M367.647 0H132.353C59.2564 0 0 59.2564 0 132.353V367.647C0 440.744 59.2564 500 132.353 500H367.647C440.744 500 500 440.744 500 367.647V132.353C500 59.2564 440.744 0 367.647 0Z" fill="url(#paint0_linear_241_3008)"/>
<path d="M354.61 27.7056H145.391C80.3945 27.7056 27.7047 80.3953 27.7047 145.391V354.611C27.7047 419.607 80.3945 472.297 145.391 472.297H354.61C419.606 472.297 472.296 419.607 472.296 354.611V145.391C472.296 80.3953 419.606 27.7056 354.61 27.7056Z" fill="#111214"/>
<path d="M305.408 118.617C304.395 117.211 303.055 116.133 301.518 115.446C300.276 114.89 298.903 114.563 297.497 114.563H241.041C238.229 114.563 235.843 115.708 234.11 117.44C230.972 120.611 230.122 125.842 233.13 129.993L315.444 244.312C316.654 246.012 317.275 248.006 317.275 250C317.275 251.994 316.654 253.989 315.444 255.688L233.13 370.007C230.122 374.159 231.005 379.422 234.143 382.593C235.843 384.326 238.229 385.437 241.041 385.437H297.497C298.903 385.437 300.276 385.143 301.518 384.587C303.055 383.901 304.395 382.789 305.408 381.383L395.863 255.688C397.073 253.989 397.694 251.994 397.694 250C397.694 248.006 397.073 246.012 395.863 244.312L305.408 118.617Z" fill="white"/>
<path d="M145.916 385.437H197.534C200.215 385.437 202.666 384.358 204.432 382.593C206.197 380.828 207.276 378.409 207.276 375.695V124.305C207.276 121.625 206.197 119.173 204.432 117.408C202.666 115.642 200.247 114.563 197.534 114.563H145.916C143.235 114.563 140.783 115.642 139.018 117.408C137.253 119.173 136.174 121.592 136.174 124.305V375.695C136.174 378.376 137.253 380.828 139.018 382.593C140.783 384.358 143.202 385.437 145.916 385.437Z" fill="white"/>
<defs>
<linearGradient id="paint0_linear_241_3008" x1="19.1294" y1="468.997" x2="480.871" y2="31.0026" gradientUnits="userSpaceOnUse">
<stop stop-color="#FF9737"/>
<stop offset="0.25" stop-color="#FA636B"/>
<stop offset="0.505" stop-color="#B353FF"/>
<stop offset="0.755" stop-color="#7056FF"/>
<stop offset="1" stop-color="#5884FF"/>
</linearGradient>
</defs>
</svg>
